<?xml version="1.0" encoding="UTF-8" standalone="no"?>
<!DOCTYPE svg PUBLIC "-//W3C//DTD SVG 1.1//EN" "http://www.w3.org/Graphics/SVG/1.1/DTD/svg11.dtd">
<svg width="100%" height="100%" viewBox="0 0 886 886" version="1.1" xmlns="http://www.w3.org/2000/svg" xmlns:xlink="http://www.w3.org/1999/xlink" xml:space="preserve" xmlns:serif="http://www.serif.com/" style="fill-rule:evenodd;clip-rule:evenodd;stroke-linejoin:round;stroke-miterlimit:1.41421;">
    <path d="M708.51,26.722C789.218,26.723 854.742,92.247 854.742,172.954L854.742,707.262C854.742,787.97 789.217,853.494 708.51,853.494L416.046,853.494C335.339,853.494 269.815,787.97 269.815,707.262L269.815,172.954C269.815,92.247 335.339,26.723 416.046,26.722L708.51,26.722ZM702.534,38.533L422.022,38.533C344.613,38.534 281.766,101.38 281.766,178.789L281.766,701.427C281.766,778.836 344.613,841.683 422.022,841.683L702.534,841.683C779.943,841.683 842.79,778.836 842.79,701.427L842.79,178.789C842.79,101.38 779.944,38.534 702.534,38.533Z" style="fill:rgb(235,235,235);"/>
    <path d="M192.481,26.722C222.747,26.723 247.318,51.294 247.318,81.559L247.318,798.657C247.318,828.922 222.746,853.494 192.481,853.494L82.807,853.494C52.542,853.494 27.97,828.922 27.97,798.657L27.97,81.559C27.97,51.294 52.541,26.723 82.807,26.722L192.481,26.722ZM185.337,38.533L89.951,38.533C63.628,38.534 42.258,59.904 42.258,86.227L42.258,793.99C42.258,820.312 63.628,841.683 89.951,841.683L185.337,841.683C211.66,841.683 233.03,820.312 233.03,793.99L233.03,86.227C233.03,59.904 211.66,38.534 185.337,38.533Z" style="fill:rgb(235,235,235);"/>
</svg>
