<?xml version="1.0" encoding="UTF-8" standalone="no"?>
<!DOCTYPE svg PUBLIC "-//W3C//DTD SVG 1.1//EN" "http://www.w3.org/Graphics/SVG/1.1/DTD/svg11.dtd">
<svg width="100%" height="100%" viewBox="0 0 950 240" version="1.1" xmlns="http://www.w3.org/2000/svg" xmlns:xlink="http://www.w3.org/1999/xlink" xml:space="preserve" xmlns:serif="http://www.serif.com/" style="fill-rule:evenodd;clip-rule:evenodd;stroke-linejoin:round;stroke-miterlimit:1.41421;">
    <g id="Logo" transform="matrix(1,0,0,1,-118.775,-40.795)">
        <g transform="matrix(1,0,0,1,822.855,232.203)">
            <path d="M0,-122.161C-2.922,-122.161 -5.245,-121.28 -6.968,-119.52C-8.692,-117.759 -9.553,-115.455 -9.553,-112.608C-9.553,-109.76 -8.729,-107.475 -7.08,-105.753C-5.434,-104.029 -3.073,-103.168 0,-103.168C2.996,-103.168 5.339,-104.029 7.024,-105.753C8.71,-107.475 9.553,-109.76 9.553,-112.608C9.553,-115.455 8.71,-117.759 7.024,-119.52C5.339,-121.28 2.996,-122.161 0,-122.161M-7.643,-30.57L7.642,-30.57L7.642,-96.317L-7.643,-96.317L-7.643,-30.57ZM55.182,-96.428C50.911,-96.428 47.107,-95.598 43.773,-93.938C40.439,-92.278 37.686,-90.077 35.514,-87.335L35.514,-96.317L20.453,-96.317L20.453,-30.57L35.626,-30.57L35.626,-65.819C35.626,-71.455 37.104,-75.774 40.065,-78.777C43.024,-81.778 46.677,-83.28 51.023,-83.28C55.969,-83.28 59.677,-81.831 62.149,-78.942C64.621,-76.05 65.858,-72.115 65.858,-67.138L65.858,-30.57L81.256,-30.57L81.256,-68.85C81.256,-77.528 78.951,-84.294 74.344,-89.148C69.735,-94.001 63.348,-96.428 55.182,-96.428M-46.415,-96.428C-50.611,-96.428 -54.377,-95.603 -57.709,-93.955C-61.044,-92.307 -63.835,-90.059 -66.082,-87.212L-66.082,-112.664L-81.255,-112.664L-81.255,-30.57L-65.971,-30.57L-65.971,-65.819C-65.971,-68.601 -65.577,-71.089 -64.79,-73.286C-64.004,-75.48 -62.918,-77.312 -61.531,-78.777C-60.146,-80.241 -58.517,-81.357 -56.642,-82.125C-54.771,-82.894 -52.784,-83.28 -50.686,-83.28C-45.74,-83.28 -42.032,-81.831 -39.56,-78.942C-37.087,-76.05 -35.851,-72.078 -35.851,-67.027L-35.851,-30.57L-20.341,-30.57L-20.341,-68.85C-20.341,-77.528 -22.645,-84.294 -27.253,-89.148C-31.86,-94.001 -38.249,-96.428 -46.415,-96.428M144.022,-56.11C143.011,-53.787 141.643,-51.746 139.92,-49.988C138.195,-48.228 136.137,-46.855 133.738,-45.869C131.34,-44.885 128.719,-44.393 125.872,-44.393C123.1,-44.393 120.495,-44.885 118.062,-45.869C115.625,-46.855 113.51,-48.21 111.711,-49.935C109.913,-51.66 108.508,-53.701 107.497,-56.057C106.484,-58.413 105.979,-60.93 105.979,-63.604C105.979,-66.277 106.484,-68.776 107.497,-71.099C108.508,-73.421 109.913,-75.426 111.711,-77.116C113.51,-78.805 115.625,-80.141 118.062,-81.126C120.495,-82.111 123.1,-82.605 125.872,-82.605C128.719,-82.605 131.34,-82.111 133.738,-81.126C136.137,-80.141 138.195,-78.787 139.92,-77.063C141.643,-75.338 143.011,-73.313 144.022,-70.993C145.034,-68.67 145.54,-66.206 145.54,-63.604C145.54,-60.93 145.034,-58.431 144.022,-56.11M144.753,-87.03C142.354,-89.911 139.319,-92.197 135.65,-93.889C131.979,-95.582 127.969,-96.428 123.624,-96.428C119.503,-96.428 115.477,-95.687 111.542,-94.207C107.608,-92.727 104.125,-90.579 101.091,-87.762C98.057,-84.946 95.62,-81.496 93.785,-77.416C91.949,-73.334 91.032,-68.661 91.032,-63.388C91.032,-58.189 91.969,-53.549 93.842,-49.468C95.713,-45.387 98.186,-41.94 101.259,-39.123C104.33,-36.307 107.795,-34.158 111.655,-32.677C115.513,-31.196 119.428,-30.456 123.399,-30.456C127.819,-30.456 131.902,-31.354 135.65,-33.153C139.396,-34.951 142.467,-37.423 144.865,-40.57L144.865,-32.927C144.865,-30.454 144.434,-28.058 143.573,-25.735C142.711,-23.415 141.475,-21.392 139.864,-19.667C138.252,-17.945 136.285,-16.559 133.964,-15.509C131.641,-14.461 129.056,-13.936 126.209,-13.936C120.964,-13.936 116.842,-15.023 113.847,-17.195C110.85,-19.369 108.151,-22.665 105.755,-27.083L92.268,-18.879C93.766,-16.108 95.564,-13.579 97.662,-11.293C99.759,-9.01 102.195,-7.025 104.968,-5.338C107.739,-3.653 110.868,-2.343 114.353,-1.405C117.837,-0.468 121.714,0 125.984,0C131.528,0 136.417,-0.869 140.651,-2.608C144.883,-4.346 148.424,-6.713 151.271,-9.708C154.118,-12.704 156.272,-16.202 157.733,-20.194C159.195,-24.191 159.925,-28.482 159.925,-33.066L159.925,-96.317L144.753,-96.317L144.753,-87.03ZM217.668,-64.491C215.421,-65.885 212.929,-66.994 210.194,-67.816C207.459,-68.637 204.744,-69.297 202.047,-69.797C197.102,-70.799 193.354,-71.745 190.808,-72.639C188.26,-73.531 186.987,-75.015 186.987,-77.087C186.987,-78.873 187.848,-80.445 189.571,-81.804C191.294,-83.161 193.955,-83.84 197.552,-83.84C200.697,-83.84 203.469,-83.201 205.868,-81.92C208.265,-80.638 210.139,-78.896 211.487,-76.69L224.412,-82.802C221.863,-87.005 218.399,-90.326 214.017,-92.767C209.633,-95.207 204.144,-96.428 197.552,-96.428C193.654,-96.428 190.114,-95.91 186.931,-94.874C183.745,-93.838 181.03,-92.428 178.782,-90.642C176.534,-88.856 174.793,-86.803 173.557,-84.482C172.319,-82.161 171.702,-79.749 171.702,-77.248C171.702,-73.963 172.376,-71.231 173.725,-69.053C175.074,-66.874 176.833,-65.088 179.007,-63.696C181.18,-62.301 183.633,-61.212 186.369,-60.428C189.103,-59.641 191.894,-58.963 194.741,-58.392C196.765,-57.964 198.712,-57.57 200.586,-57.214C202.458,-56.856 204.087,-56.41 205.475,-55.874C206.859,-55.338 207.983,-54.713 208.846,-53.999C209.707,-53.284 210.139,-52.355 210.139,-51.213C210.139,-49.142 209.201,-47.356 207.329,-45.856C205.455,-44.356 202.646,-43.606 198.9,-43.606C195.304,-43.606 192.156,-44.379 189.459,-45.924C186.763,-47.469 184.626,-49.683 183.054,-52.562L169.004,-46.24C171.627,-41.127 175.336,-37.218 180.131,-34.513C184.925,-31.809 190.957,-30.456 198.226,-30.456C202.945,-30.456 206.992,-31.099 210.363,-32.386C213.735,-33.672 216.525,-35.333 218.736,-37.37C220.945,-39.408 222.575,-41.621 223.625,-44.018C224.673,-46.411 225.198,-48.714 225.198,-50.931C225.198,-54.218 224.505,-56.951 223.119,-59.131C221.732,-61.311 219.916,-63.097 217.668,-64.491M-150.485,-98.002L-128.568,-98.002L-128.568,-30.57L-113.284,-30.57L-113.284,-98.002L-91.256,-98.002L-91.256,-112.612L-150.485,-112.612L-150.485,-98.002ZM-365.364,-96.428C-370.084,-96.428 -374.299,-95.413 -378.008,-93.384C-381.717,-91.354 -384.695,-88.64 -386.943,-85.245C-388.892,-88.788 -391.646,-91.538 -395.203,-93.494C-398.763,-95.451 -403.126,-96.428 -408.296,-96.428C-412.343,-96.428 -415.958,-95.658 -419.142,-94.116C-422.327,-92.574 -424.968,-90.479 -427.065,-87.828L-427.065,-96.317L-442.125,-96.317L-442.125,-30.57L-426.953,-30.57L-426.953,-66.149C-426.953,-71.858 -425.548,-76.141 -422.738,-78.995C-419.929,-81.851 -416.389,-83.28 -412.118,-83.28C-407.548,-83.28 -404.101,-81.96 -401.778,-79.327C-399.456,-76.69 -398.294,-73.066 -398.294,-68.454L-398.294,-30.57L-382.896,-30.57L-382.896,-66.477C-382.896,-72.115 -381.511,-76.324 -378.738,-79.105C-375.967,-81.886 -372.521,-83.28 -368.399,-83.28C-363.679,-83.28 -360.121,-81.906 -357.722,-79.161C-355.325,-76.414 -354.125,-72.701 -354.125,-68.016L-354.125,-30.57L-338.616,-30.57L-338.616,-69.402C-338.616,-77.785 -340.864,-84.384 -345.359,-89.202C-349.855,-94.019 -356.524,-96.428 -365.364,-96.428M-215.781,-96.317C-223.948,-96.317 -229.567,-93.056 -232.639,-86.538L-232.639,-96.317L-247.699,-96.317L-247.699,-30.57L-232.526,-30.57L-232.526,-65.634C-232.526,-71.327 -231.385,-75.43 -229.099,-77.941C-226.814,-80.451 -223.462,-81.705 -219.04,-81.705C-216.867,-81.705 -215.089,-81.461 -213.701,-80.975C-212.316,-80.487 -211.061,-79.869 -209.937,-79.12L-204.205,-93.506C-205.705,-94.33 -207.408,-95.004 -209.318,-95.529C-211.229,-96.053 -213.384,-96.317 -215.781,-96.317M-276.411,-56.11C-277.423,-53.787 -278.791,-51.746 -280.514,-49.988C-282.238,-48.228 -284.298,-46.855 -286.695,-45.869C-289.094,-44.885 -291.715,-44.393 -294.562,-44.393C-297.335,-44.393 -299.939,-44.885 -302.373,-45.869C-304.809,-46.855 -306.925,-48.21 -308.723,-49.935C-310.521,-51.66 -311.926,-53.701 -312.937,-56.057C-313.949,-58.413 -314.455,-60.93 -314.455,-63.604C-314.455,-66.277 -313.949,-68.776 -312.937,-71.099C-311.926,-73.421 -310.521,-75.426 -308.723,-77.116C-306.925,-78.805 -304.809,-80.141 -302.373,-81.126C-299.939,-82.111 -297.335,-82.605 -294.562,-82.605C-291.715,-82.605 -289.094,-82.111 -286.695,-81.126C-284.298,-80.141 -282.238,-78.787 -280.514,-77.063C-278.791,-75.338 -277.423,-73.313 -276.411,-70.993C-275.4,-68.67 -274.894,-66.206 -274.894,-63.604C-274.894,-60.93 -275.4,-58.431 -276.411,-56.11M-275.681,-87.645C-278.08,-90.358 -281.114,-92.5 -284.784,-94.072C-288.456,-95.642 -292.465,-96.428 -296.81,-96.428C-300.931,-96.428 -304.958,-95.687 -308.892,-94.207C-312.825,-92.727 -316.309,-90.579 -319.343,-87.762C-322.378,-84.946 -324.813,-81.496 -326.648,-77.416C-328.485,-73.334 -329.402,-68.661 -329.402,-63.388C-329.402,-58.189 -328.466,-53.549 -326.592,-49.468C-324.721,-45.387 -322.248,-41.94 -319.175,-39.123C-316.104,-36.307 -312.639,-34.158 -308.779,-32.677C-304.921,-31.196 -301.006,-30.456 -297.035,-30.456C-292.69,-30.456 -288.644,-31.298 -284.896,-32.982C-281.151,-34.664 -278.08,-36.975 -275.681,-39.911L-275.681,-30.57L-260.508,-30.57L-260.508,-96.317L-275.681,-96.317L-275.681,-87.645ZM-172.399,-116.77L-187.685,-106.319L-187.685,-96.317L-198.923,-96.317L-198.923,-82.717L-187.685,-82.717L-187.685,-57.992C-187.685,-52.746 -187.254,-48.383 -186.392,-44.899C-185.53,-41.414 -184.088,-38.605 -182.064,-36.47C-180.041,-34.334 -177.327,-32.817 -173.916,-31.917C-170.508,-31.019 -166.257,-30.57 -161.16,-30.57L-159.025,-30.57L-159.025,-44.843C-161.947,-44.843 -164.29,-44.992 -166.049,-45.292C-167.811,-45.59 -169.159,-46.209 -170.096,-47.146C-171.033,-48.082 -171.65,-49.431 -171.949,-51.193C-172.25,-52.952 -172.399,-55.256 -172.399,-58.104L-172.399,-82.717L-159.025,-82.717L-159.025,-96.317L-172.399,-96.317L-172.399,-116.77ZM-459.488,-71.451C-461.774,-73.233 -464.32,-74.689 -467.13,-75.818C-469.94,-76.945 -472.732,-77.946 -475.503,-78.821C-477.751,-79.547 -479.886,-80.238 -481.909,-80.893C-483.932,-81.547 -485.713,-82.293 -487.248,-83.131C-488.784,-83.967 -490.001,-84.932 -490.9,-86.024C-491.799,-87.117 -492.249,-88.463 -492.249,-90.064C-492.249,-92.611 -491.276,-94.758 -489.327,-96.505C-487.379,-98.251 -484.533,-99.126 -480.785,-99.126C-474.418,-99.126 -469.473,-96.423 -465.95,-91.022L-453.363,-100.811C-455.012,-102.534 -456.754,-104.127 -458.588,-105.588C-460.425,-107.049 -462.449,-108.303 -464.658,-109.353C-466.869,-110.401 -469.304,-111.225 -471.963,-111.826C-474.623,-112.425 -477.602,-112.725 -480.897,-112.725C-484.794,-112.725 -488.41,-112.142 -491.743,-110.977C-495.078,-109.813 -497.963,-108.194 -500.397,-106.122C-502.833,-104.048 -504.724,-101.63 -506.072,-98.866C-507.421,-96.102 -508.096,-93.118 -508.096,-89.917C-508.096,-86.135 -507.404,-82.988 -506.016,-80.478C-504.63,-77.967 -502.833,-75.858 -500.622,-74.148C-498.413,-72.438 -495.921,-71.075 -493.148,-70.056C-490.377,-69.037 -487.604,-68.092 -484.832,-67.22C-482.659,-66.565 -480.543,-65.911 -478.481,-65.255C-476.421,-64.6 -474.604,-63.853 -473.031,-63.018C-471.457,-62.182 -470.184,-61.181 -469.209,-60.016C-468.236,-58.852 -467.749,-57.434 -467.749,-55.761C-467.749,-52.997 -468.816,-50.524 -470.952,-48.341C-473.087,-46.158 -476.177,-45.068 -480.224,-45.068C-483.971,-45.068 -487.379,-45.977 -490.451,-47.798C-493.523,-49.619 -496.109,-52.244 -498.206,-55.672L-512.141,-45.174C-508.396,-40.979 -503.976,-37.478 -498.88,-34.669C-493.785,-31.86 -487.528,-30.456 -480.111,-30.456C-475.615,-30.456 -471.608,-31.166 -468.085,-32.585C-464.565,-34.004 -461.605,-35.86 -459.207,-38.154C-456.81,-40.446 -454.975,-43.083 -453.7,-46.069C-452.427,-49.051 -451.789,-52.11 -451.789,-55.238C-451.789,-59.094 -452.502,-62.316 -453.925,-64.9C-455.349,-67.484 -457.203,-69.666 -459.488,-71.451" style="fill:rgb(35,31,32);fill-rule:nonzero;"/>
        </g>
        <g transform="matrix(1,0,0,1,267.55,214.769)">
            <path d="M0,-108.926C-14.515,-121.804 -33.725,-124.69 -51.642,-124.69L-57.328,-124.69C-75.891,-124.69 -95.23,-121.546 -108.926,-108.926C-121.762,-94.411 -124.69,-75.158 -124.69,-57.241L-124.69,-51.728C-124.69,-33.207 -121.546,-13.697 -108.926,0C-94.325,12.922 -74.986,15.764 -56.983,15.764L-51.987,15.764C-33.38,15.764 -13.783,12.663 0,0C12.921,-14.601 15.764,-33.983 15.764,-51.987L15.764,-56.983C15.764,-75.589 12.663,-95.187 0,-108.926" style="fill:rgb(249,250,251);fill-rule:nonzero;"/>
        </g>
        <g transform="matrix(-68.4146,73.3656,73.3656,68.4146,246.786,128.594)">
            <path d="M0.282,-0.377C0.327,-0.334 0.332,-0.261 0.299,-0.209L0.367,-0.146C0.413,-0.183 0.476,-0.199 0.53,-0.184L0.571,-0.269C0.55,-0.284 0.535,-0.304 0.526,-0.328C0.515,-0.361 0.517,-0.396 0.532,-0.428C0.538,-0.441 0.546,-0.452 0.555,-0.462C0.594,-0.504 0.655,-0.516 0.705,-0.493C0.77,-0.463 0.798,-0.386 0.766,-0.321C0.761,-0.308 0.753,-0.297 0.743,-0.286C0.71,-0.251 0.662,-0.237 0.617,-0.247L0.577,-0.162C0.585,-0.157 0.593,-0.151 0.6,-0.145C0.671,-0.079 0.673,0.034 0.606,0.106C0.539,0.178 0.427,0.183 0.356,0.117C0.292,0.057 0.282,-0.036 0.331,-0.107L0.264,-0.17C0.214,-0.135 0.148,-0.142 0.102,-0.184C0.05,-0.233 0.048,-0.315 0.098,-0.368C0.147,-0.421 0.23,-0.425 0.282,-0.377ZM0.246,-0.338C0.215,-0.367 0.165,-0.365 0.136,-0.333C0.106,-0.301 0.107,-0.252 0.138,-0.223C0.169,-0.194 0.219,-0.196 0.248,-0.228C0.278,-0.26 0.277,-0.309 0.246,-0.338ZM0.72,-0.342C0.738,-0.381 0.722,-0.428 0.683,-0.446C0.652,-0.46 0.616,-0.452 0.593,-0.427C0.587,-0.421 0.582,-0.414 0.579,-0.407C0.57,-0.388 0.569,-0.366 0.576,-0.347C0.582,-0.327 0.597,-0.312 0.615,-0.303C0.646,-0.289 0.682,-0.297 0.706,-0.322C0.711,-0.328 0.716,-0.335 0.72,-0.342ZM0.557,-0.098C0.511,-0.141 0.439,-0.138 0.395,-0.091C0.352,-0.044 0.353,0.029 0.399,0.071C0.445,0.114 0.517,0.11 0.561,0.064C0.604,0.017 0.603,-0.056 0.557,-0.098ZM0.068,0.069C0.124,0.038 0.191,0.051 0.23,0.096L0.264,0.077L0.288,0.123L0.255,0.142C0.268,0.186 0.257,0.235 0.224,0.27C0.215,0.28 0.204,0.289 0.192,0.295C0.161,0.313 0.126,0.317 0.093,0.308C0.06,0.299 0.032,0.277 0.016,0.247C-0.011,0.197 -0.003,0.136 0.036,0.094C0.045,0.084 0.056,0.076 0.068,0.069ZM0.199,0.144C0.178,0.106 0.131,0.093 0.093,0.114C0.086,0.118 0.079,0.124 0.074,0.13C0.05,0.155 0.045,0.191 0.061,0.221C0.071,0.239 0.088,0.252 0.108,0.258C0.128,0.263 0.149,0.261 0.167,0.25C0.175,0.246 0.181,0.241 0.187,0.235C0.21,0.21 0.215,0.173 0.199,0.144ZM0.747,-0.01C0.753,-0.027 0.763,-0.044 0.776,-0.058C0.804,-0.088 0.846,-0.104 0.887,-0.099C0.958,-0.091 1.008,-0.027 0.999,0.045C0.995,0.072 0.983,0.098 0.964,0.118C0.935,0.149 0.894,0.164 0.853,0.16C0.79,0.153 0.744,0.102 0.74,0.042L0.702,0.038L0.709,-0.014L0.747,-0.01ZM0.947,0.039C0.953,-0.004 0.923,-0.043 0.88,-0.047C0.856,-0.05 0.831,-0.041 0.813,-0.022C0.802,-0.01 0.795,0.005 0.793,0.022C0.787,0.064 0.817,0.103 0.86,0.108C0.884,0.111 0.909,0.101 0.926,0.083C0.938,0.071 0.945,0.055 0.947,0.039ZM0.545,0.206L0.552,0.244C0.612,0.244 0.666,0.286 0.677,0.348C0.685,0.389 0.672,0.431 0.643,0.462C0.624,0.482 0.6,0.496 0.573,0.502C0.502,0.516 0.434,0.471 0.421,0.4C0.414,0.36 0.426,0.317 0.455,0.286C0.468,0.272 0.484,0.262 0.501,0.254L0.494,0.217L0.545,0.206ZM0.626,0.358C0.618,0.316 0.577,0.289 0.535,0.298C0.519,0.301 0.504,0.309 0.493,0.321C0.475,0.34 0.468,0.366 0.472,0.39C0.48,0.432 0.521,0.459 0.563,0.451C0.579,0.447 0.594,0.439 0.606,0.427C0.623,0.408 0.63,0.383 0.626,0.358Z" style="fill:url(#_Linear1);fill-rule:nonzero;"/>
        </g>
    </g>
    <defs>
        <linearGradient id="_Linear1" x1="0" y1="0" x2="1" y2="0" gradientUnits="userSpaceOnUse" gradientTransform="matrix(1,5.55112e-17,5.55112e-17,-1,1.11022e-16,-0.000104201)"><stop offset="0" style="stop-color:rgb(39,189,196);stop-opacity:1"/><stop offset="1" style="stop-color:rgb(66,106,178);stop-opacity:1"/></linearGradient>
    </defs>
</svg>
