<?xml version="1.0" encoding="UTF-8" standalone="no"?>
<!DOCTYPE svg PUBLIC "-//W3C//DTD SVG 1.1//EN" "http://www.w3.org/Graphics/SVG/1.1/DTD/svg11.dtd">
<svg width="100%" height="100%" viewBox="0 0 886 886" version="1.1" xmlns="http://www.w3.org/2000/svg" xmlns:xlink="http://www.w3.org/1999/xlink" xml:space="preserve" xmlns:serif="http://www.serif.com/" style="fill-rule:evenodd;clip-rule:evenodd;stroke-linejoin:round;stroke-miterlimit:1.41421;">
    <g transform="matrix(1.41346,0,0,1,-345.287,0)">
        <path d="M708.51,26.722C789.218,26.723 854.742,92.247 854.742,172.954L854.742,707.262C854.742,787.97 789.217,853.494 708.51,853.494L416.046,853.494C335.339,853.494 269.815,787.97 269.815,707.262L269.815,172.954C269.815,92.247 335.339,26.723 416.046,26.722L708.51,26.722ZM702.534,38.533L422.022,38.533C344.613,38.534 281.766,101.38 281.766,178.789L281.766,701.427C281.766,778.836 344.613,841.683 422.022,841.683L702.534,841.683C779.943,841.683 842.79,778.836 842.79,701.427L842.79,178.789C842.79,101.38 779.944,38.534 702.534,38.533Z" style="fill:rgb(235,235,235);"/>
    </g>
    <g transform="matrix(0.989824,0,0,0.924918,1.56758,12.2677)">
        <ellipse cx="195.812" cy="208.085" rx="41.764" ry="44.694" style="fill:rgb(235,235,235);"/>
    </g>
</svg>
